<svg xmlns="http://www.w3.org/2000/svg" xmlns:xlink="http://www.w3.org/1999/xlink" xmlns:inkscape="http://www.inkscape.org/namespaces/inkscape" version="1.1" width="199.56" height="120.218" viewBox="0 0 199.56 120.218">
<defs>
<clipPath id="clip_1">
<path transform="matrix(1,0,0,-1,0,120.218)" d="M0 120.218H199.56V0H0Z"/>
</clipPath>
</defs>
<g inkscape:groupmode="layer" inkscape:label="Logo">
<path transform="matrix(1,0,0,-1,0,120.218)" d="M0 0H199.559V120.217H0Z" fill="#ffffff"/>
<path transform="matrix(1,0,0,-1,14.7402,105.4905)" d="M0 0H104.49L105.512 6.017H1.013Z"/>
<g clip-path="url(#clip_1)">
<path transform="matrix(1,0,0,-1,184.8145,53.2268)" d="M0 0C-.034 .227-.608 .433-.99 .749-2.294 1.836-6.953 6.421-16.121 6.124-17.281 6.087-18.34 5.977-19.304 5.812-17.351 6.446-16.34 6.825-15.751 7.061-15.041 7.341-10.361 8.945-7.844 17.165-7.629 17.868-7.021 19.562-7.172 19.689-7.359 19.849-8.934 19.567-10.523 18.599-12.119 17.63-17.479 16.784-18.115 16.682-18.488 16.622-20.062 16.857-22.414 15.622-19.765 18.344-16.953 22.213-16.198 27.64-15.838 30.244-15.99 31.306-16.102 31.299-16.26 31.287-16.348 31.286-16.541 31.227-17.131 31.055-17.73 30.555-19.679 29.252-21.631 27.948-23.697 26.504-23.697 26.504-23.697 26.504-22.99 33.594-23.211 33.759-23.426 33.919-27.451 33.88-33.63 27-33.63 27-32.928 32.893-34.086 35.117-34.086 35.117-34.408 36.726-34.66 37.565-34.785 37.987-35.115 38.432-35.17 38.393-35.234 38.349-35.781 38.259-36.659 37.25-38.021 35.689-44.357 33.78-45.406 25.584-46.199 28.891-47.883 33.314-52.042 35.554-54.391 37.854-55.434 38.54-55.555 38.48-55.66 38.426-55.615 37.404-55.972 35.104-56.373 32.522-56.732 31.706-56.732 31.706-56.732 31.706-61.09 35.539-61.201 35.65-61.406 35.852-64.063 27.439-63.283 23.239-63.283 23.239-64.662 24.307-67.172 25.597-70.021 27.06-74.814 27.312-74.781 27.087-74.724 26.709-70.736 18.917-69.058 16.181-69.058 16.181-79.801 18.026-79.611 17.355-79.551 17.134-79.293 16.712-78.869 14.919-78.869 14.919-83.085 15.011-83.029 14.661-82.971 14.272-79.834 9.089-79.594 8.806-79.594 8.806-82.855 8.176-83.543 8.138-84.01 8.113-81.364 .808-74.113-1.017-73.084-1.275-72.092-1.465-71.139-1.604-70.317-1.683-69.311-1.78-68.439-1.862-64.125-2.034-61.291-.926-61.781 .672-61.781 .672-61.921 1.264-66.348 2.879-66.348 2.879-66.223 3.407-65.929 3.479-65.632 3.55-61.029 1.865-61.356 2.134-61.684 2.408-63.367 4.279-63.064 4.264-62.762 4.25-60.6 3.335-59.883 4.008-59.197 4.65-58.767 5.832-58.314 6.09-57.863 6.347-59.518 7.878-57.338 7.174-57.338 7.174-55.859 8.004-57.023 9.359-58.188 10.72-61.879 15.086-55.857 9.816-54.417 8.554-50.813 12.398-51.109 14.489-51.109 14.489-49.67 13.038-49.365 12.883-49.06 12.727-47.044 12.487-46.586 13.186-46.375 13.506-47.325 16.482-46.715 17.791-46.715 17.791-46.458 17.814-46.215 17.537-45.973 17.257-45.945 14.152-44.852 13.563-44.852 13.563-43.623 14.282-43.416 14.817-43.205 15.358-43.75 11.464-40.064 13.143-40.064 13.143-38.271 14.737-37.756 14.784-37.244 14.833-38.143 12.893-37.688 12.202-37.232 11.511-35.724 11.048-35.244 11.912-34.762 12.776-32.463 14.504-32.284 14.435-32.104 14.363-33.453 10.765-33.608 10.411-33.832 9.899-33.992 9.138-33.992 9.138-33.992 9.138-33.816 8.133-32.561 7.855-32.561 7.855-30.189 9.239-27.723 11.038-27.982 10.726-28.242 10.404-28.506 10.058-28.506 10.058-31.697 6.781-31.698 6.306-31.693 5.831-30.604 4.767-29.709 5.37-28.816 5.969-26.654 6.864-26.467 6.708-26.281 6.552-25.937 6.109-26.385 5.85-26.836 5.594-29.349 4.279-29.349 4.279-29.349 4.279-26.479 4.084-22.969 4.794-26.769 3.252-28.084 .905-28.052 .683-27.937-.07-22.034 1.46-21.873 1.088-21.025-.836-23.744 .352-24.936 .152-26.126-.044-29.187-.113-26.369-2.526-26.369-2.526-25.848-2.566-27.238-3.386-28.63-4.208-24.141-4.693-23.607-5.29-23.076-5.889-28.06-5.233-27.962-6.733-27.865-8.235-28.818-7.288-25.508-10.822-25.508-10.822-27.496-10.359-27.729-10.64-27.962-10.922-23.375-14.724-23.404-15.805-23.404-15.805-24.336-16.452-24.734-15.886-25.131-15.318-27.903-12.252-28.354-12.162-28.691-12.095-29.339-12.252-29.639-12.847-29.639-12.847-28.427-15.669-28.806-15.749-29.187-15.828-31.08-14.492-31.08-14.492-31.08-14.492-32.324-15.041-31.916-16.168-31.51-17.293-28.131-21.124-28.324-21.359-28.324-21.359-28.611-21.99-29.047-21.945-29.482-21.898-31.82-17.669-32.396-17.507-32.974-17.345-31.725-21.458-31.725-21.458-31.725-21.458-33.834-19.238-34.396-18.774-34.955-18.31-35.039-19.266-35.039-19.266L-34.429-23.959C-34.429-23.959-40.997-14.166-39.391-25.844-39.391-25.844-39.543-26.506-39.76-26.483-39.978-26.462-41.373-22.619-41.213-21.569-41.051-20.519-42.365-24.48-42.365-24.48-42.365-24.48-44.425-16.299-48.691-24.686-48.691-24.686-48.988-21.517-49.645-20.975-50.297-20.432-50.816-20.241-51.006-20.236-51.145-20.235-52.009-20.202-52.783-21.666-55.789-25.565-57.719-30.581-58.262-34.919-58.356-37.933-58.016-43.361-58.193-44.525-58.299-45.206-58.143-45.279-58.036-45.504-58.002-45.574-56.879-44.646-56.521-44.409-55.992-44.058-50.507-36.682-50.162-34.837-50.162-34.837-47.236-47.688-46.244-49.064-46.028-49.361-45.85-49.693-45.703-49.462-45.41-49.004-44.973-47.804-44.645-47.704-44.224-47.578-42.986-47.423-42.337-45.59-41.688-43.757-40.518-41.967-39.97-37.211-39.97-37.211-33.752-45.14-32.943-45.876-32.622-46.171-30.934-43.36-30.189-38.845-29.443-34.328-31.047-28.261-32.061-28.054-32.061-28.054-32.482-27.388-31.304-27.81-30.635-28.051-28.047-32.542-22.078-35.951-21.074-36.526-18.938-36.536-18.926-36.497-18.445-35.158-23.129-22.901-23.129-22.901-23.129-22.901-23.014-22.762-22.07-23.148-21.129-23.535-12.186-29.318-6.76-26.608-5.659-26.06-5.596-25.942-5.596-25.942-4.975-23.273-9.753-18.221-12.688-15.925-12.688-15.925-4.98-15.612-3.799-13.569-3.799-13.569-2.378-13.057-1.645-12.046-1.518-11.867-2.475-10.109-3.586-9.337-6.496-7.318-7.127-6.559-7.127-6.559-7.127-6.559-6.312-5.575-5.137-5.207-3.963-4.839-.164-2.495-1.179-1.34-1.179-1.34 .045-.278 0 0"/>
<path transform="matrix(1,0,0,-1,114.4785,94.1604)" d="M0 0 .627 3.762C.723 4.34 .797 5.015 .847 5.784 .898 6.555 .927 7.458 .934 8.496 .986 8.038 1.061 7.554 1.15 7.05 1.242 6.544 1.348 6.001 1.469 5.422L2.646 0H6.674L9.124 14.737H5.096L4.543 11.424C4.442 10.807 4.357 10.043 4.285 9.133 4.213 8.223 4.148 7.129 4.09 5.849L3.873 7.148C3.788 7.662 3.707 8.119 3.632 8.513 3.555 8.907 3.486 9.258 3.426 9.564L2.221 14.737H-1.576L-4.027 0Z"/>
<path transform="matrix(1,0,0,-1,108.7168,94.1604)" d="M0 0 .586 3.523H-3.004L-2.657 5.598H.561L1.146 9.123H-2.072L-1.724 11.212H1.864L2.451 14.737H-5.318L-7.769 0Z"/>
<path transform="matrix(1,0,0,-1,92.3472,94.1604)" d="M0 0 .626 3.762C.722 4.34 .796 5.015 .847 5.784 .898 6.555 .927 7.458 .932 8.496 .987 8.038 1.061 7.554 1.152 7.05 1.242 6.544 1.347 6.001 1.468 5.422L2.645 0H6.673L9.124 14.737H5.096L4.545 11.424C4.442 10.807 4.356 10.043 4.283 9.133 4.213 8.223 4.147 7.129 4.088 5.849L3.875 7.148C3.787 7.662 3.707 8.119 3.631 8.513 3.555 8.907 3.486 9.258 3.426 9.564L2.22 14.737H-1.576L-4.027 0Z"/>
<path transform="matrix(1,0,0,-1,75.9385,84.3391)" d="M0 0C.278 1.667-.103 2.952-1.143 3.857-1.961 4.562-3.312 4.916-5.198 4.916H-9.477L-11.929-9.821H-7.77L-6.911-4.666-6.779-3.693C-6.74-3.897-6.708-4.072-6.681-4.219-6.655-4.364-6.64-4.483-6.635-4.571L-5.443-9.821H-.921L-3.011-3.695C-1.3-3.013-.296-1.782 0 0M-4.122 .17C-4.212-.372-4.447-.817-4.824-1.168-5.205-1.519-5.635-1.692-6.116-1.692H-6.397L-5.812 1.819H-5.661C-4.453 1.819-3.939 1.27-4.122 .17"/>
<path transform="matrix(1,0,0,-1,57.5332,88.7405)" d="M0 0H1.545C1.497-.287 1.418-.548 1.309-.782 1.2-1.018 1.07-1.216 .919-1.38 .768-1.542 .596-1.67 .4-1.759 .205-1.851-.004-1.896-.224-1.896-.779-1.896-1.137-1.624-1.301-1.078-1.465-.533-1.446 .341-1.247 1.545-.776 4.376 .034 5.792 1.184 5.792 1.512 5.792 1.762 5.657 1.934 5.387 2.106 5.115 2.183 4.747 2.166 4.284L6.451 5.697C5.75 8.11 4.176 9.317 1.73 9.317-.114 9.317-1.678 8.653-2.961 7.327-4.245 5.999-5.078 4.184-5.461 1.879-5.839-.395-5.609-2.184-4.769-3.486-3.921-4.776-2.564-5.42-.7-5.42 1.197-5.42 2.741-4.761 3.93-3.441 5.02-2.231 5.794-.249 6.251 2.504L6.35 3.096H.516Z"/>
<path transform="matrix(1,0,0,-1,42.7993,94.1604)" d="M0 0 .586 3.523H-3.003L-2.658 5.598H.56L1.146 9.123H-2.072L-1.725 11.212H1.865L2.452 14.737H-5.319L-7.77 0Z"/>
<path transform="matrix(1,0,0,-1,35.5601,79.4231)" d="M0 0H-4.181L-6.632-14.737H-2.451Z"/>
<path transform="matrix(1,0,0,-1,28.6104,86.802)" d="M0 0C.412 2.481-.021 4.413-1.302 5.795-2.277 6.851-3.797 7.379-5.861 7.379H-9.471L-11.921-7.358H-8.011C-5.854-7.358-4.135-6.793-2.857-5.66-1.359-4.329-.407-2.445 0 0M-4.296-.149C-4.693-2.536-5.646-3.763-7.155-3.835L-5.907 3.67H-5.776C-5.129 3.67-4.671 3.327-4.405 2.64-4.136 1.959-4.1 1.027-4.296-.149"/>
<path transform="matrix(1,0,0,-1,125.5264,61.384004)" d="M0 0C-.737 1.32-1.958 1.981-3.662 1.981-5.353 1.981-6.806 1.329-8.016 .027-9.222-1.271-10.011-3.033-10.381-5.263-10.772-7.623-10.585-9.461-9.813-10.775-9.038-12.097-7.77-12.757-6.013-12.757-4.39-12.757-2.987-12.104-1.806-10.795-.627-9.48 .149-7.708 .521-5.484 .909-3.15 .733-1.322 0 0M-3.606-5.459C-3.821-6.755-4.092-7.706-4.417-8.317-4.742-8.927-5.142-9.232-5.616-9.232-6.493-9.232-6.698-7.837-6.235-5.046-5.847-2.712-5.204-1.544-4.308-1.544-3.407-1.544-3.171-2.848-3.606-5.459"/>
<path transform="matrix(1,0,0,-1,113.2656,60.8469)" d="M0 0C-.77 .964-1.914 1.444-3.431 1.444-5.037 1.444-6.414 .961-7.565-.007-8.724-.984-9.43-2.24-9.685-3.77-9.896-5.041-9.711-6.128-9.125-7.033-8.529-7.919-7.7-8.361-6.637-8.361-6.207-8.361-5.694-8.223-5.092-7.941-5.291-8.172-5.473-8.382-5.635-8.577-5.799-8.771-5.938-8.947-6.059-9.105L-9.232-13.294H-4.74L-2.902-10.764C-.738-7.795 .485-5.472 .762-3.796 1.024-2.229 .77-.962 0 0M-3.236-3.613C-3.443-4.874-3.938-5.504-4.717-5.504-5.536-5.504-5.84-4.879-5.635-3.633-5.415-2.312-4.897-1.651-4.088-1.651-3.303-1.651-3.018-2.305-3.236-3.613"/>
<path transform="matrix(1,0,0,-1,90.9106,74.1409)" d="M0 0C1.424 0 2.676 .453 3.755 1.361 4.837 2.271 5.492 3.424 5.724 4.823 5.862 5.646 5.789 6.364 5.503 6.978 5.223 7.591 4.691 8.19 3.906 8.774L3.319 9.224C2.813 9.599 2.593 9.976 2.656 10.357 2.695 10.59 2.834 10.789 3.077 10.955 3.311 11.127 3.59 11.213 3.911 11.213 4.333 11.213 4.736 11.066 5.121 10.778 5.507 10.488 5.83 10.092 6.086 9.59L6.823 14.008C5.893 14.494 4.932 14.738 3.936 14.738 2.82 14.738 1.816 14.431 .925 13.817 .602 13.603 .308 13.355 .04 13.075-.227 12.795-.472 12.486-.696 12.149-1.15 11.424-1.433 10.731-1.543 10.066-1.607 9.68-1.621 9.312-1.587 8.96-1.552 8.61-1.46 8.271-1.314 7.944-1.169 7.613-.961 7.295-.692 6.984-.423 6.674-.088 6.362 .314 6.048L.916 5.562C1.35 5.198 1.536 4.827 1.472 4.447 1.428 4.182 1.278 3.962 1.023 3.788 .765 3.611 .457 3.525 .096 3.525-.86 3.525-1.66 4.06-2.304 5.129L-3.057 .599C-2 .2-.982 0 0 0"/>
<path transform="matrix(1,0,0,-1,88.6138,59.402605)" d="M0 0H-4.181L-6.631-14.738H-2.45Z"/>
<path transform="matrix(1,0,0,-1,73.3828,74.1409)" d="M0 0 .626 3.761C.723 4.341 .796 5.017 .847 5.785 .897 6.556 .926 7.459 .932 8.497 .988 8.038 1.06 7.557 1.15 7.05 1.241 6.544 1.347 6.001 1.469 5.423L2.645 0H6.672L9.125 14.738H5.096L4.544 11.425C4.442 10.809 4.356 10.044 4.284 9.135 4.212 8.224 4.148 7.129 4.089 5.849L3.873 7.148C3.787 7.664 3.707 8.118 3.63 8.514 3.555 8.908 3.486 9.259 3.425 9.564L2.22 14.738H-1.577L-4.027 0Z"/>
<path transform="matrix(1,0,0,-1,69.3047,66.7835)" d="M0 0C.413 2.484-.022 4.415-1.303 5.796-2.276 6.852-3.795 7.381-5.862 7.381H-9.47L-11.921-7.357H-8.011C-5.854-7.357-4.134-6.79-2.857-5.659-1.359-4.328-.408-2.441 0 0M-4.295-.147C-4.693-2.534-5.646-3.762-7.154-3.832L-5.907 3.673H-5.776C-5.128 3.673-4.671 3.329-4.404 2.641-4.136 1.959-4.101 1.031-4.295-.147"/>
<path transform="matrix(1,0,0,-1,48.7842,74.1409)" d="M0 0 .625 3.761C.722 4.341 .795 5.017 .846 5.785 .896 6.556 .925 7.459 .931 8.497 .986 8.038 1.059 7.557 1.15 7.05 1.241 6.544 1.346 6.001 1.468 5.423L2.644 0H6.671L9.123 14.738H5.095L4.543 11.425C4.441 10.809 4.354 10.044 4.283 9.135 4.212 8.224 4.146 7.129 4.088 5.849L3.873 7.148C3.787 7.664 3.706 8.118 3.63 8.514 3.554 8.908 3.485 9.259 3.423 9.564L2.22 14.738H-1.578L-4.029 0Z"/>
<path transform="matrix(1,0,0,-1,32.0654,63.5833)" d="M0 0C.207 1.239-.07 2.252-.828 3.037-1.577 3.8-2.86 4.181-4.678 4.181H-9.54L-11.991-10.558H-6.137C-4.74-10.558-3.55-10.172-2.564-9.393-1.575-8.623-.974-7.606-.763-6.34-.596-5.333-.724-4.563-1.146-4.028-1.569-3.494-2.314-3.15-3.385-2.998-1.436-2.845-.307-1.847 0 0M-6.478-4.529C-5.936-4.529-5.53-4.657-5.263-4.913-4.995-5.169-4.898-5.523-4.974-5.975-5.049-6.429-5.265-6.79-5.619-7.059-5.976-7.329-6.413-7.462-6.936-7.462-6.975-7.462-7.024-7.461-7.085-7.458-7.145-7.454-7.214-7.449-7.294-7.442L-6.809-4.529ZM-4.176-.165C-4.244-.565-4.441-.877-4.768-1.099-5.097-1.321-5.512-1.432-6.013-1.432H-6.293L-5.872 1.096C-5.771 1.103-5.685 1.107-5.614 1.11-5.544 1.114-5.485 1.115-5.438 1.115-4.456 1.115-4.035 .689-4.176-.165"/>
<path transform="matrix(1,0,0,-1,82.9341,89.0383)" d="M0 0C-.11-.661-.264-1.123-.461-1.384-.656-1.634-.955-1.756-1.355-1.756-1.743-1.756-1.997-1.623-2.116-1.355-2.236-1.089-2.242-.634-2.135 .01L-.553 9.519H-4.733L-6.374-.344C-6.688-2.234-6.302-3.608-5.215-4.468-4.358-5.143-3.214-5.48-1.784-5.48-.521-5.48 .602-5.173 1.585-4.564 2.316-4.105 2.87-3.592 3.246-3.027 3.622-2.484 3.883-1.778 4.029-.906L5.762 9.519H1.583Z"/>
<path transform="matrix(1,0,0,-1,82.9941,75.6624)" d="M0 0C-.254 .298-.605 .444-1.049 .444-1.487 .444-1.886 .298-2.247 0-2.607-.296-2.822-.655-2.893-1.079-2.962-1.496-2.866-1.852-2.605-2.148-2.342-2.445-1.993-2.594-1.554-2.594-1.123-2.594-.727-2.445-.366-2.148 .001-1.846 .22-1.49 .288-1.079 .358-.655 .263-.296 0 0"/>
<path transform="matrix(1,0,0,-1,87.438,75.6711)" d="M0 0C-.268 .302-.62 .453-1.058 .453-1.502 .453-1.904 .307-2.267 .009-2.626-.287-2.841-.644-2.91-1.062-2.98-1.484-2.885-1.844-2.623-2.14-2.361-2.437-2.005-2.585-1.554-2.585-1.116-2.585-.717-2.437-.357-2.14 .004-1.844 .218-1.493 .286-1.088 .356-.657 .262-.296 0 0"/>
<path transform="matrix(1,0,0,-1,39.3276,68.9182)" d="M0 0C-.11-.662-.263-1.125-.46-1.385-.656-1.634-.955-1.757-1.355-1.757-1.743-1.757-1.996-1.623-2.115-1.356-2.235-1.09-2.241-.635-2.134 .009L-.553 9.52H-4.732L-6.374-.344C-6.687-2.235-6.302-3.609-5.215-4.467-4.358-5.145-3.215-5.481-1.783-5.481-.521-5.481 .603-5.175 1.586-4.564 2.317-4.106 2.871-3.593 3.246-3.027 3.624-2.485 3.884-1.779 4.029-.907L5.763 9.52H1.583Z"/>
<path transform="matrix(1,0,0,-1,39.3892,55.543207)" d="M0 0C-.256 .297-.605 .446-1.05 .446-1.488 .446-1.887 .297-2.248 0-2.608-.296-2.823-.656-2.894-1.078-2.963-1.496-2.867-1.853-2.605-2.147-2.343-2.445-1.993-2.594-1.555-2.594-1.123-2.594-.728-2.445-.367-2.147 0-1.846 .218-1.489 .287-1.078 .357-.656 .261-.296 0 0"/>
<path transform="matrix(1,0,0,-1,43.8311,55.552003)" d="M0 0C-.267 .303-.619 .455-1.056 .455-1.501 .455-1.904 .306-2.265 .009-2.626-.287-2.841-.643-2.908-1.061-2.98-1.484-2.884-1.845-2.622-2.14-2.36-2.437-2.004-2.585-1.552-2.585-1.116-2.585-.716-2.437-.355-2.14 .004-1.845 .218-1.493 .286-1.089 .357-.658 .262-.296 0 0"/>
</g>
</g>
</svg>
