<svg width="200" height="200" viewBox="0 0 200 200" fill="none" xmlns="http://www.w3.org/2000/svg">
<path fill-rule="evenodd" clip-rule="evenodd" d="M105.702 19C109.734 19 113.31 20.8766 116.429 24.6271C119.852 28.607 121.563 32.7014 121.563 36.9109C121.563 41.0441 120.649 44.7953 118.824 48.1632C117.074 51.4543 114.678 54.7842 111.636 58.1518C108.669 61.5197 105.13 64.8492 101.022 68.1403C96.9903 71.4315 92.6919 74.5324 88.1276 77.4409C78.6946 83.5639 69.4511 88.1556 60.3984 91.217C57.1272 98.4885 53.8952 106.564 50.7001 115.443C66.0669 101.513 83.9819 91.791 104.446 86.28C110.988 84.5195 116.505 83.64 120.993 83.64C125.481 83.64 128.181 84.4438 129.094 86.0512C130.007 87.5819 130.159 89.6482 129.551 92.2503C129.018 94.8526 127.954 97.8002 126.357 101.091C124.759 104.383 123.123 107.79 121.45 111.311C117.266 120.419 115.173 126.925 115.173 130.828C115.173 138.864 117.721 142.883 122.817 142.883C128.447 142.883 134.723 140.318 141.646 135.19C145.374 132.365 148.82 129.118 151.992 125.453C158.073 129.634 151.992 144.498 146.106 151.618C143.816 154.388 141.342 157.143 138.679 159.875C134.876 163.702 130.806 167.108 126.47 170.093C116.733 176.905 107.375 180.312 98.3982 180.312C89.4215 180.312 83.0306 178.015 79.2268 173.424C75.4995 168.753 73.6359 162.094 73.6359 153.446C73.6359 142.347 80.2918 128.454 93.6047 111.768C97.7127 106.64 99.5009 104.076 98.9685 104.076C92.8825 104.077 83.639 107.904 71.2393 115.558C58.0786 123.671 48.7977 131.631 43.3964 139.439C40.2774 151.762 38.4141 163.512 37.8055 174.686C37.8051 177.748 34.4956 179.279 27.8779 179.279C11.2939 179.279 3.0004 169.749 3 150.691C3 134.541 11.8633 113.874 29.5886 88.6914C45.1836 66.5713 62.0722 48.0486 80.2536 33.1232C91.7409 23.7087 100.224 19 105.702 19ZM92.5779 38.8628C94.7839 36.7963 96.5723 35.7634 97.9414 35.7632C99.3869 35.7632 100.528 36.7584 101.365 38.7484C102.278 40.662 102.735 42.7676 102.735 45.0638C102.735 49.7326 99.1959 55.2817 92.1214 61.7107C85.0465 67.987 76.6022 73.3824 66.789 77.8983C73.255 65.2692 79.3791 55.1272 85.1607 47.4733C87.8993 43.7994 90.3719 40.9295 92.5779 38.8628Z" fill="black"/>
<path d="M159.745 178.846C157.795 177.468 156.436 176.09 155.668 174.711C154.9 173.39 154.515 171.725 154.515 169.715C154.515 167.705 155.225 165.58 156.643 163.34C158.061 161.1 159.952 159.09 162.316 157.31C167.694 153.347 173.308 151.366 179.158 151.366C185.008 151.366 189.263 152.543 191.922 154.898C194.641 157.252 196 160.325 196 164.115C196 168.423 192.632 172.385 185.895 176.004C179.69 179.335 173.839 181 168.344 181C164.621 181 161.755 180.282 159.745 178.846Z" fill="black"/>
<path fill-rule="evenodd" clip-rule="evenodd" d="M116.429 24.6271C113.31 20.8766 109.734 19 105.702 19C100.224 19 91.7409 23.7087 80.2536 33.1232C62.0722 48.0486 45.1836 66.5713 29.5886 88.6914C11.8633 113.874 3 134.541 3 150.691C3.0004 169.749 11.2939 179.279 27.8779 179.279C34.4956 179.279 37.8051 177.748 37.8055 174.686C38.4141 163.512 40.2774 151.762 43.3964 139.439C48.7977 131.631 58.0786 123.671 71.2393 115.558C83.639 107.904 92.8825 104.077 98.9685 104.076C99.5009 104.076 97.7127 106.64 93.6047 111.768C80.2918 128.454 73.6359 142.347 73.6359 153.446C73.6359 162.094 75.4995 168.753 79.2268 173.424C83.0306 178.015 89.4215 180.312 98.3982 180.312C107.375 180.312 116.733 176.905 126.47 170.093C130.806 167.108 134.876 163.702 138.679 159.875C141.342 157.143 143.816 154.388 146.106 151.618C151.992 144.498 158.073 129.634 151.992 125.453C148.82 129.118 145.374 132.365 141.646 135.19C134.723 140.318 128.447 142.883 122.817 142.883C117.721 142.883 115.173 138.864 115.173 130.828C115.173 126.925 117.266 120.419 121.45 111.311C123.123 107.79 124.759 104.383 126.357 101.091C127.954 97.8002 129.018 94.8526 129.551 92.2503C130.159 89.6482 130.007 87.5819 129.094 86.0512C128.181 84.4438 125.481 83.64 120.993 83.64C116.505 83.64 110.988 84.5195 104.446 86.28C83.9819 91.791 66.0669 101.513 50.7001 115.443C53.8952 106.564 57.1272 98.4885 60.3984 91.217C69.4511 88.1556 78.6946 83.5639 88.1276 77.4409C92.6919 74.5324 96.9903 71.4315 101.022 68.1403C105.13 64.8492 108.669 61.5197 111.636 58.1518C114.678 54.7842 117.074 51.4543 118.824 48.1632C120.649 44.7953 121.563 41.0441 121.563 36.9109C121.563 32.7014 119.852 28.607 116.429 24.6271ZM155.668 174.711C156.436 176.09 157.795 177.468 159.745 178.846C161.755 180.282 164.621 181 168.344 181C173.839 181 179.69 179.335 185.895 176.004C192.632 172.385 196 168.423 196 164.115C196 160.325 194.641 157.252 191.922 154.898C189.263 152.543 185.008 151.366 179.158 151.366C173.308 151.366 167.694 153.347 162.316 157.31C159.952 159.09 158.061 161.1 156.643 163.34C155.225 165.58 154.515 167.705 154.515 169.715C154.515 171.725 154.9 173.39 155.668 174.711ZM92.5779 38.8628C94.7839 36.7963 96.5723 35.7634 97.9414 35.7632C99.3869 35.7632 100.528 36.7584 101.365 38.7484C102.278 40.662 102.735 42.7676 102.735 45.0638C102.735 49.7326 99.1959 55.2817 92.1214 61.7107C85.0465 67.987 76.6022 73.3824 66.789 77.8983C73.255 65.2692 79.3791 55.1272 85.1607 47.4733C87.8993 43.7994 90.3719 40.9295 92.5779 38.8628Z" fill="black"/>
</svg>
