<svg width="3210" height="2584" viewBox="0 0 3210 2584" fill="none" xmlns="http://www.w3.org/2000/svg">
<rect width="3210" height="2584" fill="url(#paint0_linear_2125_63)"/>
<path d="M701 1671.53H1811.47L1822.33 1607.58H711.766L701 1671.53Z" fill="white"/>
<path d="M2508.46 1116.03C2508.1 1113.62 2502 1111.43 2497.94 1108.07C2484.09 1096.52 2434.57 1047.79 2337.14 1050.94C2324.81 1051.34 2313.56 1052.5 2303.31 1054.26C2324.07 1047.52 2334.81 1043.49 2341.07 1040.98C2348.62 1038.01 2398.35 1020.96 2425.1 933.59C2427.39 926.118 2433.85 908.113 2432.24 906.763C2430.26 905.062 2413.52 908.059 2396.63 918.348C2379.67 928.647 2322.71 937.639 2315.95 938.723C2311.98 939.361 2295.26 936.863 2270.26 949.99C2298.41 921.058 2328.3 879.936 2336.32 822.253C2340.15 794.576 2338.53 783.288 2337.34 783.363C2335.66 783.49 2334.73 783.501 2332.68 784.128C2326.41 785.956 2320.04 791.271 2299.33 805.12C2278.58 818.98 2256.63 834.328 2256.63 834.328C2256.63 834.328 2264.14 758.97 2261.79 757.216C2259.51 755.515 2216.73 755.93 2151.06 829.056C2151.06 829.056 2158.52 766.421 2146.22 742.782C2146.22 742.782 2142.79 725.681 2140.12 716.763C2138.79 712.278 2135.28 707.548 2134.7 707.962C2134.02 708.43 2128.2 709.387 2118.87 720.111C2104.4 736.702 2037.06 756.993 2025.91 844.106C2017.48 808.957 1999.59 761.946 1955.39 738.137C1930.42 713.691 1919.34 706.4 1918.05 707.038C1916.94 707.612 1917.42 718.474 1913.62 742.92C1909.36 770.364 1905.55 779.037 1905.55 779.037C1905.55 779.037 1859.23 738.297 1858.05 737.117C1855.87 734.97 1827.64 824.39 1835.92 869.031C1835.92 869.031 1821.27 857.679 1794.59 843.968C1764.32 828.418 1713.38 825.74 1713.73 828.131C1714.34 832.149 1756.72 914.968 1774.55 944.048C1774.55 944.048 1660.38 924.438 1662.4 931.57C1663.04 933.919 1665.78 938.405 1670.28 957.462C1670.28 957.462 1625.48 956.484 1626.07 960.204C1626.69 964.339 1660.03 1019.43 1662.58 1022.44C1662.58 1022.44 1627.92 1029.13 1620.61 1029.54C1615.65 1029.8 1643.77 1107.44 1720.83 1126.84C1731.76 1129.58 1742.31 1131.6 1752.43 1133.08C1761.17 1133.92 1771.86 1134.95 1781.13 1135.82C1826.98 1137.65 1857.09 1125.87 1851.89 1108.89C1851.89 1108.89 1850.4 1102.6 1803.35 1085.43C1803.35 1085.43 1804.68 1079.82 1807.8 1079.05C1810.96 1078.3 1859.88 1096.21 1856.4 1093.35C1852.92 1090.44 1835.03 1070.55 1838.25 1070.71C1841.46 1070.86 1864.44 1080.59 1872.06 1073.43C1879.35 1066.61 1883.92 1054.05 1888.73 1051.3C1893.53 1048.57 1875.94 1032.3 1899.11 1039.78C1899.11 1039.78 1914.82 1030.96 1902.45 1016.56C1890.07 1002.09 1850.85 955.687 1914.84 1011.7C1930.15 1025.11 1968.45 984.257 1965.3 962.032C1965.3 962.032 1980.6 977.455 1983.84 979.102C1987.08 980.76 2008.5 983.311 2013.37 975.882C2015.61 972.48 2005.52 940.849 2012 926.936C2012 926.936 2014.73 926.692 2017.31 929.636C2019.89 932.612 2020.18 965.614 2031.8 971.875C2031.8 971.875 2044.86 964.232 2047.06 958.546C2049.3 952.796 2043.51 994.184 2082.68 976.339C2082.68 976.339 2101.74 959.396 2107.21 958.897C2112.65 958.376 2103.1 978.996 2107.94 986.34C2112.78 993.685 2128.81 998.606 2133.91 989.423C2139.03 980.239 2163.46 961.873 2165.37 962.606C2167.28 963.371 2152.94 1001.61 2151.3 1005.38C2148.92 1010.82 2147.21 1018.91 2147.21 1018.91C2147.21 1018.91 2149.09 1029.59 2162.42 1032.54C2162.42 1032.54 2187.63 1017.83 2213.84 998.712C2211.09 1002.03 2208.32 1005.45 2205.52 1009.13C2205.52 1009.13 2171.61 1043.96 2171.59 1049.01C2171.65 1054.06 2183.22 1065.37 2192.73 1058.96C2202.22 1052.59 2225.2 1043.08 2227.19 1044.73C2229.16 1046.39 2232.82 1051.1 2228.06 1053.85C2223.27 1056.58 2196.56 1070.55 2196.56 1070.55C2196.56 1070.55 2227.06 1072.62 2264.36 1065.08C2223.98 1081.47 2210 1106.41 2210.34 1108.77C2211.56 1116.78 2274.3 1100.51 2276.01 1104.47C2285.02 1124.92 2256.13 1112.29 2243.46 1114.42C2230.81 1116.5 2198.28 1117.23 2228.23 1142.88C2228.23 1142.88 2233.77 1143.31 2218.99 1152.02C2204.2 1160.76 2251.91 1165.91 2257.58 1172.26C2263.22 1178.63 2210.26 1171.65 2211.3 1187.6C2212.33 1203.56 2202.2 1193.49 2237.38 1231.06C2237.38 1231.06 2216.25 1226.14 2213.77 1229.12C2211.3 1232.12 2260.05 1272.53 2259.74 1284.02C2259.74 1284.02 2249.83 1290.9 2245.6 1284.88C2241.39 1278.84 2211.93 1246.26 2207.13 1245.3C2203.55 1244.59 2196.66 1246.26 2193.48 1252.58C2193.48 1252.58 2206.36 1282.57 2202.33 1283.42C2198.28 1284.26 2178.16 1270.06 2178.16 1270.06C2178.16 1270.06 2164.94 1275.9 2169.28 1287.88C2173.59 1299.84 2209.5 1340.55 2207.45 1343.05C2207.45 1343.05 2204.4 1349.76 2199.77 1349.28C2195.14 1348.78 2170.3 1303.83 2164.18 1302.11C2158.03 1300.39 2171.31 1344.1 2171.31 1344.1C2171.31 1344.1 2148.89 1320.51 2142.92 1315.58C2136.98 1310.64 2136.09 1320.81 2136.09 1320.81L2142.57 1370.69C2142.57 1370.69 2072.77 1266.6 2089.84 1390.72C2089.84 1390.72 2088.22 1397.76 2085.92 1397.51C2083.6 1397.29 2068.77 1356.44 2070.47 1345.28C2072.2 1334.12 2058.23 1376.22 2058.23 1376.22C2058.23 1376.22 2036.34 1289.27 1991 1378.41C1991 1378.41 1987.84 1344.73 1980.86 1338.97C1973.93 1333.2 1968.42 1331.17 1966.4 1331.12C1964.92 1331.11 1955.74 1330.75 1947.51 1346.32C1915.57 1387.76 1895.06 1441.07 1889.29 1487.18C1888.29 1519.21 1891.9 1576.91 1890.02 1589.28C1888.89 1596.52 1890.55 1597.29 1891.69 1599.68C1892.05 1600.43 1903.98 1590.56 1907.79 1588.05C1913.41 1584.31 1971.7 1505.92 1975.37 1486.31C1975.37 1486.31 2006.46 1622.9 2017.01 1637.52C2019.3 1640.68 2021.19 1644.21 2022.76 1641.75C2025.87 1636.88 2030.51 1624.13 2034 1623.07C2038.47 1621.73 2051.63 1620.08 2058.53 1600.6C2065.43 1581.12 2077.86 1562.09 2083.68 1511.54C2083.68 1511.54 2149.77 1595.81 2158.36 1603.64C2161.77 1606.77 2179.71 1576.9 2187.63 1528.91C2195.56 1480.9 2178.51 1416.41 2167.74 1414.21C2167.74 1414.21 2163.26 1407.13 2175.78 1411.62C2182.89 1414.18 2210.4 1461.91 2273.83 1498.15C2284.5 1504.26 2307.2 1504.36 2307.33 1503.95C2312.44 1489.72 2262.66 1359.44 2262.66 1359.44C2262.66 1359.44 2263.88 1357.96 2273.92 1362.07C2283.92 1366.18 2378.96 1427.65 2436.62 1398.84C2448.32 1393.02 2448.99 1391.76 2448.99 1391.76C2455.59 1363.4 2404.81 1309.7 2373.62 1285.3C2373.62 1285.3 2455.54 1281.97 2468.09 1260.25C2468.09 1260.25 2483.19 1254.81 2490.98 1244.07C2492.33 1242.16 2482.16 1223.48 2470.35 1215.27C2439.43 1193.81 2432.72 1185.75 2432.72 1185.75C2432.72 1185.75 2441.38 1175.29 2453.87 1171.38C2466.35 1167.46 2506.72 1142.55 2495.94 1130.27C2495.94 1130.27 2508.94 1118.99 2508.46 1116.03Z" fill="white"/>
<path d="M1760.97 1551.11L1767.63 1511.12C1768.65 1504.98 1769.44 1497.8 1769.97 1489.63C1770.51 1481.43 1770.82 1471.84 1770.9 1460.8C1771.45 1465.67 1772.25 1470.82 1773.19 1476.17C1774.17 1481.55 1775.3 1487.32 1776.58 1493.48L1789.09 1551.11H1831.9L1857.94 1394.47H1815.13L1809.25 1429.68C1808.18 1436.24 1807.27 1444.36 1806.51 1454.03C1805.74 1463.71 1805.05 1475.33 1804.44 1488.94L1802.13 1475.13C1801.23 1469.67 1800.37 1464.81 1799.57 1460.62C1798.75 1456.44 1798.02 1452.7 1797.38 1449.45L1784.57 1394.47H1744.22L1718.17 1551.11H1760.97Z" fill="white"/>
<path d="M1699.74 1551.11L1705.96 1513.66H1667.81L1671.5 1491.61H1705.7L1711.92 1454.14H1677.72L1681.42 1431.94H1719.55L1725.78 1394.47H1643.22L1617.17 1551.11H1699.74Z" fill="white"/>
<path d="M1525.77 1551.11L1532.42 1511.12C1533.44 1504.98 1534.23 1497.8 1534.77 1489.63C1535.31 1481.43 1535.62 1471.84 1535.67 1460.8C1536.26 1465.67 1537.04 1470.82 1538.01 1476.17C1538.97 1481.55 1540.08 1487.32 1541.37 1493.48L1553.88 1551.11H1596.69L1622.73 1394.47H1579.93L1574.07 1429.68C1572.98 1436.24 1572.06 1444.36 1571.29 1454.03C1570.54 1463.71 1569.84 1475.33 1569.21 1488.94L1566.95 1475.13C1566.01 1469.67 1565.16 1464.81 1564.36 1460.62C1563.55 1456.44 1562.82 1452.7 1562.18 1449.45L1549.36 1394.47H1509.02L1482.97 1551.11H1525.77Z" fill="white"/>
<path d="M1351.39 1446.72C1354.34 1429 1350.29 1415.34 1339.24 1405.72C1330.54 1398.23 1316.19 1394.47 1296.14 1394.47H1250.67L1224.61 1551.1H1268.81L1277.94 1496.31L1279.34 1485.97C1279.76 1488.14 1280.1 1490 1280.38 1491.56C1280.66 1493.1 1280.82 1494.37 1280.87 1495.3L1293.54 1551.1H1341.6L1319.39 1485.99C1337.57 1478.74 1348.24 1465.66 1351.39 1446.72ZM1307.58 1444.91C1306.62 1450.67 1304.12 1455.4 1300.12 1459.13C1296.07 1462.86 1291.5 1464.7 1286.39 1464.7H1283.4L1289.62 1427.38H1291.22C1304.06 1427.38 1309.52 1433.22 1307.58 1444.91Z" fill="white"/>
<path d="M1155.78 1493.5H1172.2C1171.69 1496.55 1170.85 1499.32 1169.69 1501.81C1168.54 1504.32 1167.15 1506.42 1165.55 1508.17C1163.94 1509.89 1162.12 1511.25 1160.03 1512.2C1157.96 1513.17 1155.74 1513.65 1153.4 1513.65C1147.5 1513.65 1143.7 1510.76 1141.96 1504.96C1140.21 1499.16 1140.42 1489.88 1142.53 1477.08C1147.54 1446.99 1156.14 1431.94 1168.37 1431.94C1171.85 1431.94 1174.51 1433.37 1176.34 1436.24C1178.16 1439.13 1178.98 1443.04 1178.8 1447.97L1224.34 1432.95C1216.89 1407.3 1200.16 1394.47 1174.17 1394.47C1154.57 1394.47 1137.95 1401.53 1124.31 1415.62C1110.67 1429.74 1101.82 1449.03 1097.75 1473.53C1093.73 1497.7 1096.17 1516.71 1105.1 1530.55C1114.11 1544.26 1128.53 1551.11 1148.34 1551.11C1168.5 1551.11 1184.91 1544.1 1197.55 1530.07C1209.13 1517.21 1217.36 1496.15 1222.22 1466.89L1223.27 1460.59H1161.27L1155.78 1493.5Z" fill="white"/>
<path d="M999.198 1551.11L1005.43 1513.66H967.284L970.95 1491.61H1005.15L1011.38 1454.14H977.178L980.866 1431.94H1019.02L1025.26 1394.47H942.671L916.623 1551.11H999.198Z" fill="white"/>
<path d="M922.264 1394.47H877.83L851.782 1551.1H896.216L922.264 1394.47Z" fill="white"/>
<path d="M848.406 1472.9C852.784 1446.53 848.183 1425.99 834.569 1411.3C824.207 1400.08 808.053 1394.47 786.118 1394.47H747.753L721.715 1551.1H763.269C786.192 1551.1 804.461 1545.1 818.043 1533.05C833.963 1518.91 844.08 1498.88 848.406 1472.9ZM802.75 1474.48C798.531 1499.85 788.403 1512.89 772.366 1513.66L785.629 1433.89H787.021C793.897 1433.89 798.765 1437.53 801.592 1444.84C804.45 1452.07 804.833 1461.98 802.75 1474.48Z" fill="white"/>
<path d="M1878.38 1202.74C1870.55 1188.71 1857.57 1181.69 1839.46 1181.69C1821.49 1181.69 1806.05 1188.62 1793.19 1202.45C1780.37 1216.25 1771.99 1234.98 1768.06 1258.68C1763.9 1283.76 1765.89 1303.3 1774.09 1317.27C1782.33 1331.32 1795.8 1338.33 1814.48 1338.33C1831.73 1338.33 1846.64 1331.39 1859.19 1317.48C1871.72 1303.5 1879.96 1284.67 1883.92 1261.03C1888.04 1236.22 1886.17 1216.79 1878.38 1202.74ZM1840.06 1260.76C1837.77 1274.54 1834.89 1284.65 1831.44 1291.14C1827.99 1297.62 1823.73 1300.87 1818.7 1300.87C1809.38 1300.87 1807.2 1286.04 1812.12 1256.37C1816.24 1231.57 1823.08 1219.15 1832.6 1219.15C1842.17 1219.15 1844.68 1233.01 1840.06 1260.76Z" fill="white"/>
<path d="M1748.08 1197.03C1739.9 1186.79 1727.74 1181.69 1711.62 1181.69C1694.55 1181.69 1679.91 1186.82 1667.68 1197.11C1655.36 1207.49 1647.86 1220.84 1645.15 1237.1C1642.91 1250.61 1644.88 1262.17 1651.1 1271.79C1657.44 1281.2 1666.25 1285.9 1677.54 1285.9C1682.11 1285.9 1687.57 1284.43 1693.96 1281.44C1691.85 1283.89 1689.91 1286.12 1688.19 1288.2C1686.45 1290.26 1684.97 1292.13 1683.69 1293.81L1649.97 1338.33H1697.7L1717.24 1311.44C1740.24 1279.88 1753.23 1255.19 1756.18 1237.38C1758.96 1220.72 1756.26 1207.26 1748.08 1197.03ZM1713.69 1235.43C1711.49 1248.84 1706.23 1255.53 1697.95 1255.53C1689.25 1255.53 1686.01 1248.89 1688.19 1235.65C1690.53 1221.61 1696.04 1214.58 1704.63 1214.58C1712.98 1214.58 1716.01 1221.53 1713.69 1235.43Z" fill="white"/>
<path d="M1510.5 1338.33C1525.64 1338.33 1538.94 1333.52 1550.41 1323.87C1561.91 1314.19 1568.87 1301.94 1571.33 1287.07C1572.8 1278.32 1572.02 1270.69 1568.99 1264.16C1566.01 1257.65 1560.36 1251.28 1552.01 1245.08L1545.77 1240.29C1540.4 1236.31 1538.06 1232.3 1538.73 1228.25C1539.14 1225.77 1540.62 1223.66 1543.2 1221.89C1545.69 1220.07 1548.65 1219.15 1552.07 1219.15C1556.55 1219.15 1560.83 1220.71 1564.93 1223.78C1569.03 1226.86 1572.46 1231.07 1575.18 1236.4L1583.01 1189.44C1573.13 1184.28 1562.92 1181.69 1552.33 1181.69C1540.47 1181.69 1529.8 1184.95 1520.33 1191.47C1516.9 1193.75 1513.78 1196.38 1510.93 1199.36C1508.09 1202.34 1505.49 1205.62 1503.11 1209.2C1498.28 1216.91 1495.27 1224.27 1494.1 1231.34C1493.42 1235.45 1493.27 1239.36 1493.64 1243.1C1494.01 1246.82 1494.99 1250.42 1496.54 1253.9C1498.08 1257.42 1500.29 1260.8 1503.15 1264.1C1506.01 1267.4 1509.57 1270.71 1513.84 1274.05L1520.24 1279.21C1524.85 1283.08 1526.83 1287.03 1526.15 1291.07C1525.68 1293.88 1524.08 1296.22 1521.37 1298.07C1518.63 1299.95 1515.36 1300.87 1511.52 1300.87C1501.36 1300.87 1492.86 1295.18 1486.02 1283.82L1478.01 1331.97C1489.25 1336.21 1500.07 1338.33 1510.5 1338.33Z" fill="white"/>
<path d="M1486.09 1181.68H1441.66L1415.62 1338.33H1460.05L1486.09 1181.68Z" fill="white"/>
<path d="M1324.23 1338.33L1330.88 1298.36C1331.91 1292.19 1332.68 1285.01 1333.23 1276.84C1333.76 1268.65 1334.07 1259.05 1334.13 1248.02C1334.73 1252.9 1335.49 1258.01 1336.45 1263.4C1337.41 1268.78 1338.54 1274.55 1339.84 1280.69L1352.33 1338.33H1395.13L1421.2 1181.69H1378.38L1372.52 1216.9C1371.43 1223.45 1370.52 1231.58 1369.75 1241.24C1368.99 1250.92 1368.31 1262.56 1367.68 1276.16L1365.39 1262.36C1364.47 1256.87 1363.62 1252.05 1362.8 1247.84C1362.01 1243.65 1361.27 1239.92 1360.62 1236.68L1347.82 1181.69H1307.47L1281.43 1338.33H1324.23Z" fill="white"/>
<path d="M1280.88 1260.13C1285.27 1233.73 1280.65 1213.2 1267.04 1198.53C1256.7 1187.3 1240.55 1181.68 1218.59 1181.68H1180.24L1154.19 1338.33H1195.75C1218.67 1338.33 1236.95 1332.3 1250.52 1320.28C1266.44 1306.13 1276.55 1286.08 1280.88 1260.13ZM1235.24 1261.69C1231.01 1287.06 1220.88 1300.12 1204.86 1300.86L1218.11 1221.09H1219.5C1226.39 1221.09 1231.24 1224.75 1234.08 1232.06C1236.93 1239.31 1237.3 1249.17 1235.24 1261.69Z" fill="white"/>
<path d="M1062.8 1338.33L1069.45 1298.36C1070.48 1292.19 1071.25 1285.01 1071.79 1276.84C1072.33 1268.65 1072.63 1259.05 1072.7 1248.02C1073.28 1252.9 1074.06 1258.01 1075.02 1263.4C1075.99 1268.78 1077.11 1274.55 1078.4 1280.69L1090.9 1338.33H1133.7L1159.76 1181.69H1116.95L1111.08 1216.9C1110 1223.45 1109.08 1231.58 1108.32 1241.24C1107.57 1250.92 1106.86 1262.56 1106.25 1276.16L1103.96 1262.36C1103.05 1256.87 1102.19 1252.05 1101.38 1247.84C1100.57 1243.65 1099.84 1239.92 1099.18 1236.68L1086.4 1181.69H1046.03L1019.98 1338.33H1062.8Z" fill="white"/>
<path d="M885.124 1226.12C887.324 1212.95 884.38 1202.18 876.324 1193.84C868.364 1185.73 854.729 1181.68 835.408 1181.68H783.737L757.689 1338.33H819.903C834.749 1338.33 847.396 1334.23 857.875 1325.95C868.386 1317.77 874.773 1306.96 877.015 1293.5C878.79 1282.8 877.43 1274.61 872.945 1268.93C868.449 1263.25 860.532 1259.6 849.15 1257.98C869.863 1256.35 881.861 1245.75 885.124 1226.12ZM816.279 1274.25C822.039 1274.25 826.354 1275.61 829.191 1278.33C832.039 1281.06 833.07 1284.82 832.263 1289.62C831.466 1294.45 829.17 1298.28 825.408 1301.14C821.614 1304.01 816.97 1305.43 811.411 1305.43C810.997 1305.43 810.476 1305.42 809.828 1305.38C809.19 1305.34 808.457 1305.29 807.607 1305.21L812.761 1274.25H816.279ZM840.743 1227.87C840.021 1232.12 837.927 1235.44 834.452 1237.8C830.955 1240.16 826.545 1241.34 821.221 1241.34H818.245L822.719 1214.47C823.793 1214.39 824.706 1214.35 825.461 1214.32C826.205 1214.28 826.832 1214.26 827.331 1214.26C837.768 1214.26 842.242 1218.79 840.743 1227.87Z" fill="white"/>
<path d="M1425.73 1496.67C1424.56 1503.69 1422.93 1508.6 1420.83 1511.38C1418.76 1514.03 1415.58 1515.33 1411.33 1515.33C1407.21 1515.33 1404.51 1513.92 1403.24 1511.07C1401.97 1508.24 1401.9 1503.41 1403.04 1496.56L1419.85 1395.49H1375.43L1357.99 1500.32C1354.65 1520.41 1358.76 1535.02 1370.31 1544.16C1379.42 1551.33 1391.57 1554.91 1406.77 1554.91C1420.19 1554.91 1432.13 1551.65 1442.58 1545.18C1450.34 1540.3 1456.23 1534.85 1460.23 1528.84C1464.22 1523.07 1467 1515.56 1468.55 1506.3L1486.97 1395.49H1442.55L1425.73 1496.67Z" fill="white"/>
<path d="M1426.37 1354.5C1423.67 1351.34 1419.94 1349.78 1415.22 1349.78C1410.56 1349.78 1406.32 1351.34 1402.49 1354.5C1398.66 1357.65 1396.38 1361.47 1395.62 1365.97C1394.89 1370.4 1395.91 1374.19 1398.68 1377.33C1401.48 1380.49 1405.19 1382.07 1409.85 1382.07C1414.43 1382.07 1418.64 1380.49 1422.48 1377.33C1426.38 1374.12 1428.71 1370.34 1429.43 1365.97C1430.17 1361.47 1429.16 1357.65 1426.37 1354.5Z" fill="white"/>
<path d="M1473.6 1354.59C1470.75 1351.39 1467.01 1349.78 1462.35 1349.78C1457.63 1349.78 1453.36 1351.33 1449.5 1354.5C1445.69 1357.65 1443.4 1361.44 1442.67 1365.88C1441.93 1370.37 1442.94 1374.19 1445.72 1377.34C1448.5 1380.5 1452.29 1382.07 1457.08 1382.07C1461.74 1382.07 1465.98 1380.5 1469.8 1377.34C1473.64 1374.19 1475.91 1370.46 1476.64 1366.16C1477.38 1361.58 1476.38 1357.74 1473.6 1354.59Z" fill="white"/>
<path d="M962.303 1282.82C961.134 1289.86 959.508 1294.78 957.414 1297.54C955.331 1300.19 952.154 1301.49 947.903 1301.49C943.779 1301.49 941.09 1300.07 939.826 1297.23C938.55 1294.41 938.487 1289.57 939.624 1282.72L956.426 1181.63H912.013L894.563 1286.48C891.237 1306.58 895.328 1321.18 906.88 1330.3C915.988 1337.5 928.135 1341.08 943.354 1341.08C956.766 1341.08 968.711 1337.82 979.158 1331.33C986.927 1326.46 992.814 1321.01 996.8 1314.99C1000.82 1309.23 1003.58 1301.73 1005.12 1292.46L1023.55 1181.63H979.126L962.303 1282.82Z" fill="white"/>
<path d="M962.958 1140.66C960.237 1137.5 956.528 1135.92 951.799 1135.92C947.144 1135.92 942.903 1137.5 939.067 1140.66C935.241 1143.81 932.956 1147.63 932.202 1152.12C931.468 1156.56 932.489 1160.36 935.273 1163.48C938.057 1166.65 941.777 1168.23 946.432 1168.23C951.023 1168.23 955.221 1166.65 959.057 1163.48C962.958 1160.28 965.274 1156.49 966.008 1152.12C966.752 1147.63 965.731 1143.81 962.958 1140.66Z" fill="white"/>
<path d="M1010.16 1140.76C1007.33 1137.53 1003.59 1135.92 998.941 1135.92C994.212 1135.92 989.929 1137.5 986.092 1140.66C982.256 1143.81 979.971 1147.59 979.259 1152.03C978.494 1156.53 979.514 1160.37 982.298 1163.5C985.083 1166.66 988.866 1168.23 993.67 1168.23C998.303 1168.23 1002.55 1166.66 1006.39 1163.5C1010.21 1160.37 1012.48 1156.62 1013.2 1152.33C1013.96 1147.75 1012.95 1143.9 1010.16 1140.76Z" fill="white"/>
<defs>
<linearGradient id="paint0_linear_2125_63" x1="1605" y1="0" x2="1605" y2="2584" gradientUnits="userSpaceOnUse">
<stop stop-color="#376E51"/>
<stop offset="1" stop-color="#42BC7B"/>
</linearGradient>
</defs>
</svg>
