<svg width="153" height="131" viewBox="0 0 153 131" fill="none" xmlns="http://www.w3.org/2000/svg">
<g clip-path="url(#paint0_diamond_2046_65_clip_path)" data-figma-skip-parse="true"><g transform="matrix(0.0995 0.1295 -0.151248 0.11621 85 -22.5)"><rect x="0" y="0" width="1084.88" height="917.213" fill="url(#paint0_diamond_2046_65)" opacity="1" shape-rendering="crispEdges"/><rect x="0" y="0" width="1084.88" height="917.213" transform="scale(1 -1)" fill="url(#paint0_diamond_2046_65)" opacity="1" shape-rendering="crispEdges"/><rect x="0" y="0" width="1084.88" height="917.213" transform="scale(-1 1)" fill="url(#paint0_diamond_2046_65)" opacity="1" shape-rendering="crispEdges"/><rect x="0" y="0" width="1084.88" height="917.213" transform="scale(-1)" fill="url(#paint0_diamond_2046_65)" opacity="1" shape-rendering="crispEdges"/></g></g><path fill-rule="evenodd" clip-rule="evenodd" d="M79.989 18C82.0299 18 83.8403 18.9499 85.4192 20.8483C87.1518 22.8628 88.0182 24.9353 88.0182 27.066C88.0182 29.1581 87.5557 31.0569 86.6314 32.7616C85.7457 34.4275 84.5331 36.113 82.9928 37.8176C81.4909 39.5223 79.6996 41.2076 77.6201 42.8735C75.5791 44.5394 73.4032 46.109 71.0927 47.5812C66.3176 50.6805 61.6384 53.0047 57.0558 54.5543C55.3999 58.2349 53.7638 62.3227 52.1464 66.817C59.9253 59.7657 68.9941 54.8448 79.3531 52.0553C82.665 51.1642 85.4575 50.719 87.7296 50.719C90.0015 50.719 91.3684 51.1259 91.8305 51.9395C92.2926 52.7143 92.3697 53.7602 92.0617 55.0773C91.7921 56.3945 91.2534 57.8865 90.4447 59.5524C89.636 61.2184 88.8079 62.9429 87.9607 64.7251C85.8428 69.3354 84.7833 72.6286 84.7833 74.6045C84.7834 78.6721 86.0733 80.7061 88.6531 80.7063C91.5028 80.7063 94.68 79.4079 98.1843 76.8121C100.071 75.3824 101.816 73.7388 103.421 71.8837C106.5 74 103.421 81.5234 100.442 85.1275C99.2828 86.5297 98.0304 87.924 96.6824 89.3073C94.7571 91.2442 92.6971 92.9681 90.5022 94.479C85.573 97.927 80.8359 99.652 76.2918 99.652C71.7477 99.652 68.5125 98.489 66.587 96.165C64.7002 93.801 63.7568 90.4305 63.7568 86.0527C63.7568 80.435 67.1261 73.4027 73.8653 64.9567C75.9448 62.3609 76.85 61.0634 76.5805 61.0634C73.4997 61.0635 68.8205 63.0006 62.5436 66.8748C55.8815 70.9816 51.1834 75.011 48.4492 78.9628C46.8703 85.2005 45.9271 91.1478 45.619 96.804C45.6188 98.354 43.9435 99.129 40.5935 99.129C32.1985 99.129 28.0002 94.305 28 84.6585C28 76.4837 32.4867 66.0224 41.4595 53.2759C49.3539 42.0793 57.9031 32.7036 67.1068 25.1488C72.9218 20.3834 77.2163 18 79.989 18ZM73.3455 28.054C74.4622 27.008 75.3675 26.4852 76.0606 26.4851C76.7923 26.4851 77.3701 26.9888 77.7937 27.9961C78.2558 28.9647 78.4871 30.0305 78.4871 31.1928C78.4869 33.556 76.6956 36.3648 73.1144 39.619C69.533 42.7959 65.2584 45.5269 60.2908 47.8127C63.564 41.4202 66.6641 36.2866 69.5908 32.4124C70.9771 30.5528 72.2288 29.1001 73.3455 28.054Z" data-figma-gradient-fill="{&#34;type&#34;:&#34;GRADIENT_DIAMOND&#34;,&#34;stops&#34;:[{&#34;color&#34;:{&#34;r&#34;:0.13333334028720856,&#34;g&#34;:0.0,&#34;b&#34;:1.0,&#34;a&#34;:1.0},&#34;position&#34;:0.051177002489566803},{&#34;color&#34;:{&#34;r&#34;:0.58805340528488159,&#34;g&#34;:0.52467697858810425,&#34;b&#34;:1.0,&#34;a&#34;:1.0},&#34;position&#34;:0.54326921701431274},{&#34;color&#34;:{&#34;r&#34;:1.0,&#34;g&#34;:0.75375598669052124,&#34;b&#34;:0.88807094097137451,&#34;a&#34;:1.0},&#34;position&#34;:0.74519228935241699},{&#34;color&#34;:{&#34;r&#34;:0.73333334922790527,&#34;g&#34;:1.0,&#34;b&#34;:0.0,&#34;a&#34;:1.0},&#34;position&#34;:1.0}],&#34;stopsVar&#34;:[{&#34;color&#34;:{&#34;r&#34;:0.13333334028720856,&#34;g&#34;:0.0,&#34;b&#34;:1.0,&#34;a&#34;:1.0},&#34;position&#34;:0.051177002489566803},{&#34;color&#34;:{&#34;r&#34;:0.58805340528488159,&#34;g&#34;:0.52467697858810425,&#34;b&#34;:1.0,&#34;a&#34;:1.0},&#34;position&#34;:0.54326921701431274},{&#34;color&#34;:{&#34;r&#34;:1.0,&#34;g&#34;:0.75375598669052124,&#34;b&#34;:0.88807094097137451,&#34;a&#34;:1.0},&#34;position&#34;:0.74519228935241699},{&#34;color&#34;:{&#34;r&#34;:0.73333334922790527,&#34;g&#34;:1.0,&#34;b&#34;:0.0,&#34;a&#34;:1.0},&#34;position&#34;:1.0}],&#34;transform&#34;:{&#34;m00&#34;:199.0,&#34;m01&#34;:-302.49618530273438,&#34;m02&#34;:136.74809265136719,&#34;m10&#34;:259.0,&#34;m11&#34;:232.41987609863281,&#34;m12&#34;:-268.20993041992188},&#34;opacity&#34;:1.0,&#34;blendMode&#34;:&#34;NORMAL&#34;,&#34;visible&#34;:true}"/>
<g clip-path="url(#paint1_diamond_2046_65_clip_path)" data-figma-skip-parse="true"><g transform="matrix(0.0995 0.1295 -0.151248 0.11621 85 -22.5)"><rect x="0" y="0" width="1084.88" height="917.213" fill="url(#paint1_diamond_2046_65)" opacity="1" shape-rendering="crispEdges"/><rect x="0" y="0" width="1084.88" height="917.213" transform="scale(1 -1)" fill="url(#paint1_diamond_2046_65)" opacity="1" shape-rendering="crispEdges"/><rect x="0" y="0" width="1084.88" height="917.213" transform="scale(-1 1)" fill="url(#paint1_diamond_2046_65)" opacity="1" shape-rendering="crispEdges"/><rect x="0" y="0" width="1084.88" height="917.213" transform="scale(-1)" fill="url(#paint1_diamond_2046_65)" opacity="1" shape-rendering="crispEdges"/></g></g><path d="M107.347 98.9099C106.359 98.2122 105.671 97.5145 105.282 96.8169C104.894 96.1483 104.699 95.3052 104.699 94.2878C104.699 93.2703 105.058 92.1948 105.776 91.061C106.494 89.9273 107.451 88.9099 108.648 88.0087C111.37 86.0029 114.212 85 117.173 85C120.135 85 122.289 85.5959 123.635 86.7878C125.011 87.9796 125.699 89.5349 125.699 91.4535C125.699 93.6337 123.994 95.6395 120.584 97.4709C117.443 99.157 114.481 100 111.699 100C109.814 100 108.364 99.6366 107.347 98.9099Z" data-figma-gradient-fill="{&#34;type&#34;:&#34;GRADIENT_DIAMOND&#34;,&#34;stops&#34;:[{&#34;color&#34;:{&#34;r&#34;:0.13333334028720856,&#34;g&#34;:0.0,&#34;b&#34;:1.0,&#34;a&#34;:1.0},&#34;position&#34;:0.051177002489566803},{&#34;color&#34;:{&#34;r&#34;:0.58805340528488159,&#34;g&#34;:0.52467697858810425,&#34;b&#34;:1.0,&#34;a&#34;:1.0},&#34;position&#34;:0.54326921701431274},{&#34;color&#34;:{&#34;r&#34;:1.0,&#34;g&#34;:0.75375598669052124,&#34;b&#34;:0.88807094097137451,&#34;a&#34;:1.0},&#34;position&#34;:0.74519228935241699},{&#34;color&#34;:{&#34;r&#34;:0.73333334922790527,&#34;g&#34;:1.0,&#34;b&#34;:0.0,&#34;a&#34;:1.0},&#34;position&#34;:1.0}],&#34;stopsVar&#34;:[{&#34;color&#34;:{&#34;r&#34;:0.13333334028720856,&#34;g&#34;:0.0,&#34;b&#34;:1.0,&#34;a&#34;:1.0},&#34;position&#34;:0.051177002489566803},{&#34;color&#34;:{&#34;r&#34;:0.58805340528488159,&#34;g&#34;:0.52467697858810425,&#34;b&#34;:1.0,&#34;a&#34;:1.0},&#34;position&#34;:0.54326921701431274},{&#34;color&#34;:{&#34;r&#34;:1.0,&#34;g&#34;:0.75375598669052124,&#34;b&#34;:0.88807094097137451,&#34;a&#34;:1.0},&#34;position&#34;:0.74519228935241699},{&#34;color&#34;:{&#34;r&#34;:0.73333334922790527,&#34;g&#34;:1.0,&#34;b&#34;:0.0,&#34;a&#34;:1.0},&#34;position&#34;:1.0}],&#34;transform&#34;:{&#34;m00&#34;:199.0,&#34;m01&#34;:-302.49618530273438,&#34;m02&#34;:136.74809265136719,&#34;m10&#34;:259.0,&#34;m11&#34;:232.41987609863281,&#34;m12&#34;:-268.20993041992188},&#34;opacity&#34;:1.0,&#34;blendMode&#34;:&#34;NORMAL&#34;,&#34;visible&#34;:true}"/>
<g clip-path="url(#paint2_diamond_2046_65_clip_path)" data-figma-skip-parse="true"><g transform="matrix(0.0995 0.1295 -0.151248 0.11621 85 -22.5)"><rect x="0" y="0" width="1084.88" height="917.213" fill="url(#paint2_diamond_2046_65)" opacity="1" shape-rendering="crispEdges"/><rect x="0" y="0" width="1084.88" height="917.213" transform="scale(1 -1)" fill="url(#paint2_diamond_2046_65)" opacity="1" shape-rendering="crispEdges"/><rect x="0" y="0" width="1084.88" height="917.213" transform="scale(-1 1)" fill="url(#paint2_diamond_2046_65)" opacity="1" shape-rendering="crispEdges"/><rect x="0" y="0" width="1084.88" height="917.213" transform="scale(-1)" fill="url(#paint2_diamond_2046_65)" opacity="1" shape-rendering="crispEdges"/></g></g><path fill-rule="evenodd" clip-rule="evenodd" d="M153 69.2646C153 94.529 132.3 131 76.5 131C20.7 131 0 94.529 0 69.2646C0 44.0003 20.7 0 76.5 0C132.3 0 153 44.0003 153 69.2646ZM143 69.2646C143 58.972 138.648 43.9786 128.086 31.6709C117.818 19.7063 101.456 10 76.5 10C51.5439 10 35.1817 19.7063 24.9141 31.6709C14.352 43.9786 10 58.972 10 69.2646C10.0001 79.3597 14.2031 92.2368 24.4326 102.572C34.4704 112.714 50.9182 121 76.5 121C102.082 121 118.53 112.714 128.567 102.572C138.797 92.2368 143 79.3597 143 69.2646ZM85.4192 20.8483C83.8403 18.9499 82.0299 18 79.989 18C77.2163 18 72.9218 20.3834 67.1068 25.1488C57.9031 32.7036 49.3539 42.0793 41.4595 53.2759C32.4867 66.0224 28 76.4837 28 84.6585C28.0002 94.305 32.1985 99.129 40.5935 99.129C43.9435 99.129 45.6188 98.354 45.619 96.804C45.9271 91.1478 46.8703 85.2005 48.4492 78.9628C51.1834 75.011 55.8815 70.9816 62.5436 66.8748C68.8205 63.0006 73.4997 61.0635 76.5805 61.0634C76.85 61.0634 75.9448 62.3609 73.8653 64.9567C67.1261 73.4027 63.7568 80.435 63.7568 86.0527C63.7568 90.4305 64.7002 93.801 66.587 96.165C68.5125 98.489 71.7477 99.652 76.2918 99.652C80.8359 99.652 85.573 97.927 90.5022 94.479C92.6971 92.9681 94.7571 91.2442 96.6824 89.3073C98.0304 87.924 99.2828 86.5297 100.442 85.1275C103.421 81.5234 106.5 74 103.421 71.8837C101.816 73.7388 100.071 75.3824 98.1843 76.8121C94.68 79.4079 91.5028 80.7063 88.6531 80.7063C86.0733 80.7061 84.7834 78.6721 84.7833 74.6045C84.7833 72.6286 85.8428 69.3354 87.9607 64.7251C88.8079 62.9429 89.636 61.2184 90.4447 59.5524C91.2534 57.8865 91.7921 56.3945 92.0617 55.0773C92.3697 53.7602 92.2926 52.7143 91.8305 51.9395C91.3684 51.1259 90.0015 50.719 87.7296 50.719C85.4575 50.719 82.665 51.1642 79.3531 52.0553C68.9941 54.8448 59.9253 59.7657 52.1464 66.817C53.7638 62.3227 55.3999 58.2349 57.0558 54.5543C61.6384 53.0047 66.3176 50.6805 71.0927 47.5812C73.4032 46.109 75.5791 44.5394 77.6201 42.8735C79.6996 41.2076 81.4909 39.5223 82.9928 37.8176C84.5331 36.113 85.7457 34.4275 86.6314 32.7616C87.5557 31.0569 88.0182 29.1581 88.0182 27.066C88.0182 24.9353 87.1518 22.8628 85.4192 20.8483ZM105.282 96.8169C105.671 97.5145 106.359 98.2122 107.347 98.9099C108.364 99.6366 109.814 100 111.699 100C114.481 100 117.443 99.157 120.584 97.4709C123.994 95.6395 125.699 93.6337 125.699 91.4535C125.699 89.5349 125.011 87.9796 123.635 86.7878C122.289 85.5959 120.135 85 117.173 85C114.212 85 111.37 86.0029 108.648 88.0087C107.451 88.9099 106.494 89.9273 105.776 91.061C105.058 92.1948 104.699 93.2703 104.699 94.2878C104.699 95.3052 104.894 96.1483 105.282 96.8169ZM73.3455 28.054C74.4622 27.008 75.3675 26.4852 76.0606 26.4851C76.7923 26.4851 77.3701 26.9888 77.7937 27.9961C78.2558 28.9647 78.4871 30.0305 78.4871 31.1928C78.4869 33.556 76.6956 36.3648 73.1144 39.619C69.533 42.7959 65.2584 45.5269 60.2908 47.8127C63.564 41.4202 66.6641 36.2866 69.5908 32.4124C70.9771 30.5528 72.2288 29.1001 73.3455 28.054Z" data-figma-gradient-fill="{&#34;type&#34;:&#34;GRADIENT_DIAMOND&#34;,&#34;stops&#34;:[{&#34;color&#34;:{&#34;r&#34;:0.13333334028720856,&#34;g&#34;:0.0,&#34;b&#34;:1.0,&#34;a&#34;:1.0},&#34;position&#34;:0.051177002489566803},{&#34;color&#34;:{&#34;r&#34;:0.58805340528488159,&#34;g&#34;:0.52467697858810425,&#34;b&#34;:1.0,&#34;a&#34;:1.0},&#34;position&#34;:0.54326921701431274},{&#34;color&#34;:{&#34;r&#34;:1.0,&#34;g&#34;:0.75375598669052124,&#34;b&#34;:0.88807094097137451,&#34;a&#34;:1.0},&#34;position&#34;:0.74519228935241699},{&#34;color&#34;:{&#34;r&#34;:0.73333334922790527,&#34;g&#34;:1.0,&#34;b&#34;:0.0,&#34;a&#34;:1.0},&#34;position&#34;:1.0}],&#34;stopsVar&#34;:[{&#34;color&#34;:{&#34;r&#34;:0.13333334028720856,&#34;g&#34;:0.0,&#34;b&#34;:1.0,&#34;a&#34;:1.0},&#34;position&#34;:0.051177002489566803},{&#34;color&#34;:{&#34;r&#34;:0.58805340528488159,&#34;g&#34;:0.52467697858810425,&#34;b&#34;:1.0,&#34;a&#34;:1.0},&#34;position&#34;:0.54326921701431274},{&#34;color&#34;:{&#34;r&#34;:1.0,&#34;g&#34;:0.75375598669052124,&#34;b&#34;:0.88807094097137451,&#34;a&#34;:1.0},&#34;position&#34;:0.74519228935241699},{&#34;color&#34;:{&#34;r&#34;:0.73333334922790527,&#34;g&#34;:1.0,&#34;b&#34;:0.0,&#34;a&#34;:1.0},&#34;position&#34;:1.0}],&#34;transform&#34;:{&#34;m00&#34;:199.0,&#34;m01&#34;:-302.49618530273438,&#34;m02&#34;:136.74809265136719,&#34;m10&#34;:259.0,&#34;m11&#34;:232.41987609863281,&#34;m12&#34;:-268.20993041992188},&#34;opacity&#34;:1.0,&#34;blendMode&#34;:&#34;NORMAL&#34;,&#34;visible&#34;:true}"/>
<defs>
<clipPath id="paint0_diamond_2046_65_clip_path"><path fill-rule="evenodd" clip-rule="evenodd" d="M79.989 18C82.0299 18 83.8403 18.9499 85.4192 20.8483C87.1518 22.8628 88.0182 24.9353 88.0182 27.066C88.0182 29.1581 87.5557 31.0569 86.6314 32.7616C85.7457 34.4275 84.5331 36.113 82.9928 37.8176C81.4909 39.5223 79.6996 41.2076 77.6201 42.8735C75.5791 44.5394 73.4032 46.109 71.0927 47.5812C66.3176 50.6805 61.6384 53.0047 57.0558 54.5543C55.3999 58.2349 53.7638 62.3227 52.1464 66.817C59.9253 59.7657 68.9941 54.8448 79.3531 52.0553C82.665 51.1642 85.4575 50.719 87.7296 50.719C90.0015 50.719 91.3684 51.1259 91.8305 51.9395C92.2926 52.7143 92.3697 53.7602 92.0617 55.0773C91.7921 56.3945 91.2534 57.8865 90.4447 59.5524C89.636 61.2184 88.8079 62.9429 87.9607 64.7251C85.8428 69.3354 84.7833 72.6286 84.7833 74.6045C84.7834 78.6721 86.0733 80.7061 88.6531 80.7063C91.5028 80.7063 94.68 79.4079 98.1843 76.8121C100.071 75.3824 101.816 73.7388 103.421 71.8837C106.5 74 103.421 81.5234 100.442 85.1275C99.2828 86.5297 98.0304 87.924 96.6824 89.3073C94.7571 91.2442 92.6971 92.9681 90.5022 94.479C85.573 97.927 80.8359 99.652 76.2918 99.652C71.7477 99.652 68.5125 98.489 66.587 96.165C64.7002 93.801 63.7568 90.4305 63.7568 86.0527C63.7568 80.435 67.1261 73.4027 73.8653 64.9567C75.9448 62.3609 76.85 61.0634 76.5805 61.0634C73.4997 61.0635 68.8205 63.0006 62.5436 66.8748C55.8815 70.9816 51.1834 75.011 48.4492 78.9628C46.8703 85.2005 45.9271 91.1478 45.619 96.804C45.6188 98.354 43.9435 99.129 40.5935 99.129C32.1985 99.129 28.0002 94.305 28 84.6585C28 76.4837 32.4867 66.0224 41.4595 53.2759C49.3539 42.0793 57.9031 32.7036 67.1068 25.1488C72.9218 20.3834 77.2163 18 79.989 18ZM73.3455 28.054C74.4622 27.008 75.3675 26.4852 76.0606 26.4851C76.7923 26.4851 77.3701 26.9888 77.7937 27.9961C78.2558 28.9647 78.4871 30.0305 78.4871 31.1928C78.4869 33.556 76.6956 36.3648 73.1144 39.619C69.533 42.7959 65.2584 45.5269 60.2908 47.8127C63.564 41.4202 66.6641 36.2866 69.5908 32.4124C70.9771 30.5528 72.2288 29.1001 73.3455 28.054Z"/></clipPath><clipPath id="paint1_diamond_2046_65_clip_path"><path d="M107.347 98.9099C106.359 98.2122 105.671 97.5145 105.282 96.8169C104.894 96.1483 104.699 95.3052 104.699 94.2878C104.699 93.2703 105.058 92.1948 105.776 91.061C106.494 89.9273 107.451 88.9099 108.648 88.0087C111.37 86.0029 114.212 85 117.173 85C120.135 85 122.289 85.5959 123.635 86.7878C125.011 87.9796 125.699 89.5349 125.699 91.4535C125.699 93.6337 123.994 95.6395 120.584 97.4709C117.443 99.157 114.481 100 111.699 100C109.814 100 108.364 99.6366 107.347 98.9099Z"/></clipPath><clipPath id="paint2_diamond_2046_65_clip_path"><path fill-rule="evenodd" clip-rule="evenodd" d="M153 69.2646C153 94.529 132.3 131 76.5 131C20.7 131 0 94.529 0 69.2646C0 44.0003 20.7 0 76.5 0C132.3 0 153 44.0003 153 69.2646ZM143 69.2646C143 58.972 138.648 43.9786 128.086 31.6709C117.818 19.7063 101.456 10 76.5 10C51.5439 10 35.1817 19.7063 24.9141 31.6709C14.352 43.9786 10 58.972 10 69.2646C10.0001 79.3597 14.2031 92.2368 24.4326 102.572C34.4704 112.714 50.9182 121 76.5 121C102.082 121 118.53 112.714 128.567 102.572C138.797 92.2368 143 79.3597 143 69.2646ZM85.4192 20.8483C83.8403 18.9499 82.0299 18 79.989 18C77.2163 18 72.9218 20.3834 67.1068 25.1488C57.9031 32.7036 49.3539 42.0793 41.4595 53.2759C32.4867 66.0224 28 76.4837 28 84.6585C28.0002 94.305 32.1985 99.129 40.5935 99.129C43.9435 99.129 45.6188 98.354 45.619 96.804C45.9271 91.1478 46.8703 85.2005 48.4492 78.9628C51.1834 75.011 55.8815 70.9816 62.5436 66.8748C68.8205 63.0006 73.4997 61.0635 76.5805 61.0634C76.85 61.0634 75.9448 62.3609 73.8653 64.9567C67.1261 73.4027 63.7568 80.435 63.7568 86.0527C63.7568 90.4305 64.7002 93.801 66.587 96.165C68.5125 98.489 71.7477 99.652 76.2918 99.652C80.8359 99.652 85.573 97.927 90.5022 94.479C92.6971 92.9681 94.7571 91.2442 96.6824 89.3073C98.0304 87.924 99.2828 86.5297 100.442 85.1275C103.421 81.5234 106.5 74 103.421 71.8837C101.816 73.7388 100.071 75.3824 98.1843 76.8121C94.68 79.4079 91.5028 80.7063 88.6531 80.7063C86.0733 80.7061 84.7834 78.6721 84.7833 74.6045C84.7833 72.6286 85.8428 69.3354 87.9607 64.7251C88.8079 62.9429 89.636 61.2184 90.4447 59.5524C91.2534 57.8865 91.7921 56.3945 92.0617 55.0773C92.3697 53.7602 92.2926 52.7143 91.8305 51.9395C91.3684 51.1259 90.0015 50.719 87.7296 50.719C85.4575 50.719 82.665 51.1642 79.3531 52.0553C68.9941 54.8448 59.9253 59.7657 52.1464 66.817C53.7638 62.3227 55.3999 58.2349 57.0558 54.5543C61.6384 53.0047 66.3176 50.6805 71.0927 47.5812C73.4032 46.109 75.5791 44.5394 77.6201 42.8735C79.6996 41.2076 81.4909 39.5223 82.9928 37.8176C84.5331 36.113 85.7457 34.4275 86.6314 32.7616C87.5557 31.0569 88.0182 29.1581 88.0182 27.066C88.0182 24.9353 87.1518 22.8628 85.4192 20.8483ZM105.282 96.8169C105.671 97.5145 106.359 98.2122 107.347 98.9099C108.364 99.6366 109.814 100 111.699 100C114.481 100 117.443 99.157 120.584 97.4709C123.994 95.6395 125.699 93.6337 125.699 91.4535C125.699 89.5349 125.011 87.9796 123.635 86.7878C122.289 85.5959 120.135 85 117.173 85C114.212 85 111.37 86.0029 108.648 88.0087C107.451 88.9099 106.494 89.9273 105.776 91.061C105.058 92.1948 104.699 93.2703 104.699 94.2878C104.699 95.3052 104.894 96.1483 105.282 96.8169ZM73.3455 28.054C74.4622 27.008 75.3675 26.4852 76.0606 26.4851C76.7923 26.4851 77.3701 26.9888 77.7937 27.9961C78.2558 28.9647 78.4871 30.0305 78.4871 31.1928C78.4869 33.556 76.6956 36.3648 73.1144 39.619C69.533 42.7959 65.2584 45.5269 60.2908 47.8127C63.564 41.4202 66.6641 36.2866 69.5908 32.4124C70.9771 30.5528 72.2288 29.1001 73.3455 28.054Z"/></clipPath><linearGradient id="paint0_diamond_2046_65" x1="0" y1="0" x2="500" y2="500" gradientUnits="userSpaceOnUse">
<stop offset="0.051177" stop-color="#2200FF"/>
<stop offset="0.543269" stop-color="#9686FF"/>
<stop offset="0.745192" stop-color="#FFC0E2"/>
<stop offset="1" stop-color="#BBFF00"/>
</linearGradient>
<linearGradient id="paint1_diamond_2046_65" x1="0" y1="0" x2="500" y2="500" gradientUnits="userSpaceOnUse">
<stop offset="0.051177" stop-color="#2200FF"/>
<stop offset="0.543269" stop-color="#9686FF"/>
<stop offset="0.745192" stop-color="#FFC0E2"/>
<stop offset="1" stop-color="#BBFF00"/>
</linearGradient>
<linearGradient id="paint2_diamond_2046_65" x1="0" y1="0" x2="500" y2="500" gradientUnits="userSpaceOnUse">
<stop offset="0.051177" stop-color="#2200FF"/>
<stop offset="0.543269" stop-color="#9686FF"/>
<stop offset="0.745192" stop-color="#FFC0E2"/>
<stop offset="1" stop-color="#BBFF00"/>
</linearGradient>
</defs>
</svg>
