<svg width="300" height="132" viewBox="0 0 300 132" fill="none" xmlns="http://www.w3.org/2000/svg">
<path fill-rule="evenodd" clip-rule="evenodd" d="M64.989 25C67.0299 25 68.8403 25.9499 70.4192 27.8483C72.1518 29.8628 73.0182 31.9353 73.0182 34.066C73.0182 36.1581 72.5557 38.0569 71.6314 39.7616C70.7457 41.4275 69.5331 43.113 67.9928 44.8176C66.4909 46.5223 64.6996 48.2076 62.6201 49.8735C60.5791 51.5394 58.4032 53.109 56.0927 54.5812C51.3176 57.6805 46.6384 60.0047 42.0558 61.5543C40.3999 65.2349 38.7638 69.3227 37.1464 73.817C44.9253 66.7657 53.9941 61.8448 64.3531 59.0553C67.665 58.1642 70.4575 57.719 72.7296 57.719C75.0015 57.719 76.3684 58.1259 76.8305 58.9395C77.2926 59.7143 77.3697 60.7602 77.0617 62.0773C76.7921 63.3945 76.2534 64.8865 75.4447 66.5524C74.636 68.2184 73.8079 69.9429 72.9607 71.7251C70.8428 76.3354 69.7833 79.6286 69.7833 81.6045C69.7834 85.6721 71.0733 87.7061 73.6531 87.7063C76.5028 87.7063 79.68 86.4079 83.1843 83.8121C85.0714 82.3824 86.8162 80.7388 88.4215 78.8837C90.0265 77.0286 91.6955 74.4548 92.5015 73.4755C96.9695 68.0517 102.63 63.3369 109.87 59.9276C117.379 56.4021 125.138 54.6391 133.148 54.6391C136.19 54.6391 138.366 55.1237 139.676 56.0922C140.715 54.8524 141.64 54.1352 142.449 53.9415C143.296 53.7091 143.95 53.5932 144.412 53.5932C145.876 53.5932 147.436 53.8057 149.092 54.2319C148.938 54.7356 148.61 55.6079 148.11 56.8477C147.609 58.0487 147.05 59.4823 146.434 61.1481C145.818 62.8139 145.164 64.6347 144.471 66.6103C141.968 73.6614 140.716 78.9501 140.716 82.4757C140.716 85.9626 141.814 87.7063 144.009 87.7063C146.858 87.7063 150.035 86.4088 153.54 83.8131C154.97 82.7292 156.319 81.5208 157.587 80.1926C160.411 76.992 162.559 72.4708 163.906 70.4614C167.272 65.4378 170.945 62.5619 176.645 59.4625C182.459 56.2856 187.89 54.697 192.934 54.697C195.668 54.697 197.785 55.1624 199.287 56.0922C201.906 57.7193 203.215 59.2688 203.215 60.7409C203.215 62.3293 202.465 63.3952 200.964 63.9376C198.037 62.3879 195.435 61.6122 193.163 61.6122C190.93 61.6123 188.89 62.1361 187.042 63.1821C185.232 64.1894 183.633 65.5262 182.246 67.1921C179.32 70.7177 177.856 74.6304 177.856 78.9308C177.856 82.1852 179.011 84.7429 181.322 86.6025C183.44 88.3847 186.56 89.2752 190.68 89.2752C194.801 89.2751 198.844 88.0552 202.811 85.6145C205.339 84.0493 207.667 82.0583 209.796 79.6441C212.748 76.2973 213.749 74.3468 216.335 70.9637C221.329 64.4331 226.628 61.3029 233.945 58.9395C233.714 57.1962 234.349 55.7626 235.85 54.6391C236.929 53.8255 238.7 53.4185 241.165 53.4185C243.667 53.4185 246.075 53.6513 248.385 54.1161C250.696 54.581 253.025 55.6076 255.374 57.196C271.503 67.8912 264.107 95.3854 247.001 103.5C235.057 109.166 209.043 110.621 207.451 92.309C205.464 94.6519 203.263 96.7791 200.846 98.6895C193.838 104.23 186.214 107 177.973 107C171.311 107 166.072 105.276 162.26 101.828C159.259 99.1112 157.428 95.4647 156.766 90.8892C155.402 92.6285 153.904 94.3382 152.27 96.0168C150.422 97.9152 148.456 99.6197 146.376 101.131C141.717 104.463 137.173 106.129 132.744 106.129C127.122 106.129 123.348 104.424 121.423 101.015C120.806 99.9688 120.498 99.0582 120.498 98.2833V96.8302C115.222 103.029 108.792 106.129 101.206 106.129C96.3915 106.129 92.5405 104.676 89.6525 101.77C87.1535 99.2563 85.7496 96.0418 85.442 92.1275C84.2828 93.5297 83.0304 94.924 81.6824 96.3073C79.7571 98.2442 77.6971 99.9681 75.5022 101.479C70.573 104.927 65.8359 106.652 61.2918 106.652C56.7477 106.652 53.5125 105.489 51.587 103.165C49.7002 100.801 48.7568 97.4305 48.7568 93.0527C48.7568 87.435 52.1261 80.4027 58.8653 71.9567C60.9448 69.3609 61.85 68.0634 61.5805 68.0634C58.4997 68.0635 53.8205 70.0006 47.5436 73.8748C40.8815 77.9816 36.1834 82.011 33.4492 85.9628C31.8703 92.2005 30.9271 98.1478 30.619 103.804C30.6188 105.354 28.9435 106.129 25.5935 106.129C17.1985 106.129 13.0002 101.305 13 91.6585C13 83.4837 17.4867 73.0224 26.4595 60.2759C34.3539 49.0793 42.9031 39.7036 52.1068 32.1488C57.9218 27.3834 62.2163 25 64.989 25ZM136.962 59.9855C127.335 60.0629 119.344 62.2711 112.99 66.6103C106.982 70.717 103.977 75.5021 103.977 80.9647C103.977 85.4588 105.846 87.7062 109.581 87.7063C113.702 87.7063 118.553 84.3548 124.137 77.6523C127.102 74.0881 129.683 70.679 131.878 67.4247C134.112 64.1702 135.807 61.6902 136.962 59.9855ZM240.001 63.1821C234.875 63.5611 228.822 67.7733 226.897 74.5146C226.28 76.5678 225.973 78.7178 225.973 80.9647C225.973 85.4589 227.841 87.7062 231.576 87.7063C234.734 87.7063 237.91 85.7883 241.106 81.9528C244.456 77.9622 246.132 73.9137 246.132 69.8069C246.132 65.6227 243.001 62.9602 240.001 63.1821ZM61.0606 33.4851C60.3675 33.4852 59.4622 34.008 58.3455 35.054C57.2288 36.1001 55.9771 37.5528 54.5908 39.4124C51.6641 43.2866 48.564 48.4202 45.2908 54.8127C50.2584 52.5269 54.533 49.7959 58.1144 46.619C61.6956 43.3648 63.4869 40.556 63.4871 38.1928C63.4871 37.0305 63.2558 35.9647 62.7937 34.9961C62.3701 33.9888 61.7923 33.4851 61.0606 33.4851Z" fill="black"/>
<path d="M268.522 104.91C267.535 104.212 266.847 103.515 266.458 102.817C266.069 102.148 265.875 101.305 265.875 100.288C265.875 99.2703 266.233 98.1948 266.951 97.061C267.669 95.9273 268.627 94.9099 269.823 94.0087C272.545 92.0029 275.387 91 278.349 91C281.31 91 283.464 91.5959 284.81 92.7878C286.186 93.9797 286.875 95.5349 286.875 97.4535C286.875 99.6337 285.169 101.64 281.759 103.471C278.618 105.157 275.657 106 272.875 106C270.99 106 269.539 105.637 268.522 104.91Z" fill="black"/>
</svg>
